<svg xmlns="http://www.w3.org/2000/svg" width="1045.031" height="147.438" viewBox="0 0 1045.031 147.438">
  <defs>
    <style>
      .cls-100 {
        fill: #d50029;
        fill-rule: evenodd;
      }
    </style>
  </defs>
  <path id="logo" class="cls-100" d="M184.245,0.268L150.858,45.526H332.824c9.2,0,9.077,3.487,4.581,9.563-4.564,6.17-12.206,16.9-16.855,23.16-2.361,3.183-6.628,8.977,7.511,8.977h74.414s11.994-16.287,22.048-29.9C438.2,38.806,425.709.268,376.811,0.268H184.245Zm-46.9,147.444L204.41,56.8h83.22c9.2,0,9.078,3.486,4.582,9.563-4.565,6.17-12.332,16.782-16.983,23.05-2.36,3.179-6.627,8.98,7.512,8.98H394.228c-9.271,12.673-39.347,49.319-93.351,49.319H137.349Zm384.063-49.33-36.366,49.33H389.117S425.463,98.393,425.5,98.393l95.917-.011h0ZM668.373,87.225H433.736L497.9,0.268h95.9L557.024,50.129h42.807L636.626,0.268h95.889L668.373,87.225h0Zm-8.234,11.168-36.384,49.319h-95.9s36.348-49.319,36.38-49.319h95.9ZM0.466,117.841H141.79l-7.719,10.478H0.466V117.841h0Zm0-19.448H156.147l-7.733,10.464H0.466V98.393h0Zm0,38.906H127.44l-7.683,10.413H0.466V137.3h0Zm1045.034-8.98H904.718l7.726-10.478,133.056,0v10.475h0Zm0,19.393-155.093.011L898.09,137.3H1045.5v10.413h0ZM926.784,98.393H1045.5V108.86l-126.432.011,7.716-10.478h0ZM865.331,0.268L801.178,87.225H699.558S763.725,0.268,763.761.268h101.57Zm-174,98.125s-7.006,9.559-10.415,14.153c-12.047,16.243-1.393,35.166,37.914,35.166H872.845l36.38-49.319H691.331Z" transform="translate(-0.469 -0.281)"/>
</svg>
