<svg xmlns="http://www.w3.org/2000/svg" width="1518" height="648" viewBox="0 0 1518 648">
  <defs>
    <style>
      .cls-1 {
        fill: #fedc00;
      }

      .cls-1, .cls-2, .cls-3, .cls-4, .cls-5, .cls-6, .cls-7, .cls-8, .cls-9 {
        fill-rule: evenodd;
      }

      .cls-2 {
        fill: #ff7002;
      }

      .cls-3 {
        fill: #fffef5;
      }

      .cls-4 {
        fill: #030303;
      }

      .cls-5 {
        fill: #fffffa;
      }

      .cls-6, .cls-9 {
        fill: none;
      }

      .cls-6 {
        stroke: #000;
        stroke-width: 36.48px;
      }

      .cls-7 {
        fill: #d50029;
      }

      .cls-8 {
        fill: #6e918b;
      }

      .cls-9 {
        stroke: #030303;
        stroke-width: 36.47px;
      }
    </style>
  </defs>
  <path id="body" class="cls-1" d="M18,384c0.264-53.958,70.842-124.976,136-135,91-14,936-22,936-22s81-24,100-41S1382,2,1382,19c0,24-7,151-8,180-0.34,9.994,124.43,57.428,125,82,0.82,35.157-154.62,23.885-229,50-162.52,57.062-441.729,111.938-813,113C85.71,445.062,17.775,430.1,18,384Z"/>
  <path class="cls-2" d="M1191,321L693,408,28,399l34,29,509,24,386-30,225-68Z"/>
  <path id="white_upper" data-name="white upper" class="cls-3" d="M33,357H213l36-68,780-13s93.07-2.989,119-32c22.93-11.011,46.07-5.989,53,6s226,48,226,48l65-20-76-48-191-17-56-7-67,22-921,8L71,308Z"/>
  <path id="window" class="cls-4" d="M154,343l-44-2s-34.552,1.936,9-24c21.743-12.948,94-23,94-23l-8,45Z"/>
  <path id="window-2" data-name="window" class="cls-5" d="M161,302l6,43,8-1-6-45Z"/>
  <path id="body_copy" data-name="body copy" class="cls-6" d="M18,384c0.264-53.958,70.842-124.976,136-135,91-14,936-22,936-22s81-24,100-41S1382,2,1382,19c0,24-7,151-8,180-0.34,9.994,124.43,57.428,125,82,0.82,35.157-154.62,23.885-229,50-162.52,57.062-441.729,111.938-813,113C85.71,445.062,17.775,430.1,18,384Z"/>
  <path id="logo" class="cls-7" d="M310.634,310.31L294.925,331.6h85.614c4.327,0,4.27,1.641,2.155,4.5-2.147,2.9-5.743,7.95-7.93,10.9-1.111,1.5-3.118,4.223,3.534,4.223h35.011s5.643-7.663,10.373-14.068c6.436-8.713.558-26.844-22.448-26.844h-90.6Zm-22.065,69.371,31.552-42.774h39.154c4.328,0,4.271,1.64,2.156,4.5-2.148,2.9-5.8,7.9-7.99,10.845-1.111,1.5-3.118,4.225,3.534,4.225h52.454c-4.362,5.962-18.513,23.2-43.921,23.2H288.569Zm180.7-23.209-17.11,23.209H407.024s17.1-23.2,17.115-23.2l45.129,0h0Zm69.143-5.25H428.017l30.188-40.912h45.121l-17.3,23.459h20.14l17.311-23.459h45.115l-30.178,40.912h0Zm-3.874,5.255-17.118,23.2H472.3s17.1-23.2,17.116-23.2h45.12Zm-310.369,9.15h66.491l-3.632,4.929H224.168v-4.929h0Zm0-9.15h73.246l-3.638,4.923H224.168v-4.923h0Zm0,18.305h59.739l-3.614,4.9H224.168v-4.9h0Zm491.677-4.226H649.609l3.635-4.929h62.6v4.928h0Zm0,9.125-72.969,0,3.615-4.9h69.354v4.9h0Zm-55.854-23.2h55.854V361.4l-59.484.006,3.63-4.93h0ZM631.078,310.31L600.9,351.222H553.084s30.19-40.912,30.206-40.912h47.788Zm-81.865,46.167s-3.3,4.5-4.9,6.658c-5.668,7.643-.656,16.546,17.838,16.546h72.462l17.117-23.2H549.213Z"/>
  <path id="rwing" class="cls-5" d="M1142,56c5.68,15.621-194,165-194,165l-233,6S947.5,92.5,982,83,1137.51,43.651,1142,56Z"/>
  <path class="cls-7" d="M790,219l226-104L884,229Z"/>
  <path id="rwing_copy" data-name="rwing copy" class="cls-6" d="M1142,56c5.68,15.621-194,165-194,165l-233,6S947.5,92.5,982,83,1137.51,43.651,1142,56Z"/>
  <path id="jet" class="cls-5" d="M561,435s-57.264,145.011,51,144,165-72,165-72L592,448Z"/>
  <path class="cls-8" d="M569,459c23,18,53.736,51.011,70,111,32.264-2.011,84-37,84-37L576,449S546,441,569,459Z"/>
  <path id="jet_copy_2" data-name="jet copy 2" class="cls-9" d="M594,445c-60.413-20.011-90.264,135.011,18,134s165-72,165-72S643.672,461.453,594,445Z"/>
  <path id="lwing" class="cls-5" d="M562,433c-1-15,188-47.5,198-44s331,196,331,217-88,25.5-110,24S563,448,562,433Z"/>
  <path class="cls-7" d="M592,428L946,556,714,412Z"/>
  <path id="lwing_copy" data-name="lwing copy" class="cls-6" d="M562,433c-1-15,188-47.5,198-44s331,196,331,217-88,25.5-110,24S563,448,562,433Z"/>
  <path id="jet-2" data-name="jet" class="cls-5" d="M1378,335c1-14.5-102.67-89.552-161-62s-22.67,93.448,5,93S1377,349.5,1378,335Z"/>
  <path class="cls-8" d="M1276,277c15,15,31.24,37.511,26,72-3.6,23.719,55-9,55-9l-5-51S1261,262,1276,277Z"/>
  <path id="jet_copy" data-name="jet copy" class="cls-6" d="M1378,335c1-14.5-102.67-89.552-161-62s-22.67,93.448,5,93S1377,349.5,1378,335Z"/>
</svg>
