<svg xmlns="http://www.w3.org/2000/svg" width="1518" height="648" viewBox="0 0 1518 648">
  <defs>
    <style>
      .cls-1 {
        fill: #fedc00;
      }

      .cls-1, .cls-2, .cls-3, .cls-4, .cls-5, .cls-6, .cls-7, .cls-8, .cls-9 {
        fill-rule: evenodd;
      }

      .cls-2 {
        fill: #ff7002;
      }

      .cls-3 {
        fill: #fffef5;
      }

      .cls-4 {
        fill: #030303;
      }

      .cls-5 {
        fill: #fffffa;
      }

      .cls-6, .cls-9 {
        fill: none;
      }

      .cls-6 {
        stroke: #000;
        stroke-width: 36.48px;
      }

      .cls-7 {
        fill: #d50029;
      }

      .cls-8 {
        fill: #6e918b;
      }

      .cls-9 {
        stroke: #030303;
        stroke-width: 36.47px;
      }
    </style>
  </defs>
  <path id="body" class="cls-1" d="M1498.97,384c-0.26-53.958-70.84-124.976-136-135-91-14-936-22-936-22s-81-24-100-41-192-184-192-167c0,24,7,151,8,180,0.344,9.994-124.429,57.428-125,82-0.818,35.157,154.622,23.885,229,50,162.52,57.062,441.729,111.938,813,113C1431.26,445.062,1499.19,430.1,1498.97,384Z"/>
  <path class="cls-2" d="M325.969,321l498,87,665-9-34,29-509,24-386-30-225-68Z"/>
  <path id="white_upper" data-name="white upper" class="cls-3" d="M1483.97,357h-180l-36-68-780-13s-93.07-2.989-119-32c-22.93-11.011-46.07-5.989-53,6s-226,48-226,48l-65-20,76-48,191-17,56-7,67,22,921,8,110,72Z"/>
  <path id="window" class="cls-4" d="M1362.97,343l44-2s34.55,1.936-9-24c-21.74-12.948-94-23-94-23l8,45Z"/>
  <path id="window-2" data-name="window" class="cls-5" d="M1355.97,302l-6,43-8-1,6-45Z"/>
  <path id="body_copy" data-name="body copy" class="cls-6" d="M1498.97,384c-0.26-53.958-70.84-124.976-136-135-91-14-936-22-936-22s-81-24-100-41-192-184-192-167c0,24,7,151,8,180,0.344,9.994-124.429,57.428-125,82-0.818,35.157,154.622,23.885,229,50,162.52,57.062,441.729,111.938,813,113C1431.26,445.062,1499.19,430.1,1498.97,384Z"/>
  <path id="logo" class="cls-7" d="M887.6,310.31L871.894,331.6h85.613c4.328,0,4.271,1.641,2.156,4.5-2.148,2.9-5.743,7.95-7.931,10.9-1.11,1.5-3.118,4.223,3.535,4.223h35.011s5.643-7.663,10.372-14.068c6.44-8.713.56-26.844-22.447-26.844H887.6Zm-22.065,69.371,31.552-42.774h39.154c4.328,0,4.271,1.64,2.156,4.5-2.148,2.9-5.8,7.9-7.991,10.845-1.11,1.5-3.118,4.225,3.535,4.225H986.4c-4.361,5.962-18.512,23.2-43.92,23.2H865.538Zm180.7-23.209-17.11,23.209H983.993s17.1-23.2,17.117-23.2l45.13,0h0Zm69.14-5.25H1004.99l30.18-40.912h45.12l-17.3,23.459h20.14l17.31-23.459h45.12l-30.18,40.912h0Zm-3.87,5.255-17.12,23.2h-45.12s17.1-23.2,17.12-23.2h45.12Zm-310.374,9.15h66.492L864,370.556h-62.86v-4.929h0Zm0-9.15h73.247l-3.639,4.923H801.136v-4.923h0Zm0,18.305h59.74l-3.615,4.9H801.136v-4.9h0Zm491.674-4.226h-66.23l3.63-4.929h62.6v4.928h0Zm0,9.125-72.97,0,3.62-4.9h69.35v4.9h0Zm-55.85-23.2h55.85V361.4l-59.48.006,3.63-4.93h0Zm-28.91-46.167-30.19,40.912h-47.81s30.19-40.912,30.21-40.912h47.79Zm-81.87,46.167s-3.29,4.5-4.9,6.658c-5.67,7.643-.65,16.546,17.84,16.546h72.46l17.12-23.2H1126.18Z"/>
  <path id="rwing" class="cls-5" d="M374.969,56c-5.678,15.621,194,165,194,165l233,6s-232.5-134.5-267-144S379.458,43.651,374.969,56Z"/>
  <path class="cls-7" d="M726.969,219l-226-104,132,114Z"/>
  <path id="rwing_copy" data-name="rwing copy" class="cls-6" d="M374.969,56c-5.678,15.621,194,165,194,165l233,6s-232.5-134.5-267-144S379.458,43.651,374.969,56Z"/>
  <path id="jet" class="cls-5" d="M955.969,435s57.261,145.011-51,144-165-72-165-72l185-59Z"/>
  <path class="cls-8" d="M947.969,459c-23,18-53.737,51.011-70,111-32.264-2.011-84-37-84-37l147-84S970.969,441,947.969,459Z"/>
  <path id="jet_copy_2" data-name="jet copy 2" class="cls-9" d="M922.969,445c60.413-20.011,90.261,135.011-18,134s-165-72-165-72S873.3,461.453,922.969,445Z"/>
  <path id="lwing" class="cls-5" d="M954.969,433c1-15-188-47.5-198-44s-331,196-331,217,88,25.5,110,24S953.969,448,954.969,433Z"/>
  <path class="cls-7" d="M924.969,428l-354,128,232-144Z"/>
  <path id="lwing_copy" data-name="lwing copy" class="cls-6" d="M954.969,433c1-15-188-47.5-198-44s-331,196-331,217,88,25.5,110,24S953.969,448,954.969,433Z"/>
  <path id="jet-2" data-name="jet" class="cls-5" d="M138.969,335c-1-14.5,102.667-89.552,161-62s22.667,93.448-5,93S139.969,349.5,138.969,335Z"/>
  <path class="cls-8" d="M240.969,277c-15,15-31.237,37.511-26,72,3.6,23.719-55-9-55-9l5-51S255.969,262,240.969,277Z"/>
  <path id="jet_copy" data-name="jet copy" class="cls-6" d="M138.969,335c-1-14.5,102.667-89.552,161-62s22.667,93.448-5,93S139.969,349.5,138.969,335Z"/>
</svg>
